<svg xmlns="http://www.w3.org/2000/svg" xmlns:xlink="http://www.w3.org/1999/xlink" width="41" height="37" viewBox="0 0 41 37"><defs><path id="b67sa" d="M373 55h-34a2 2 0 0 1-2-2V23c0-1.1.9-2 2-2h34a2 2 0 0 1 2 2v30a2 2 0 0 1-2 2zm0-28a1 1 0 0 0-1-1h-32a1 1 0 0 0-1 1v25a1 1 0 0 0 1 1h32a1 1 0 0 0 1-1zm-16 20h-3a2 2 0 0 1-2-2h-11v-1h11c0-1.1.9-2 2-2h3a2 2 0 0 1 2 2h11v1h-11a2 2 0 0 1-2 2zm7-8h-13a2 2 0 0 1-2-2h-8v-1h8c0-1.1.9-2 2-2h13a2 2 0 0 1 2 2h4v1h-4a2 2 0 0 1-2 2zm-17-7h-3a2 2 0 0 1-2-2h-1v-1h1c0-1.1.9-2 2-2h3a2 2 0 0 1 2 2h21v1h-21a2 2 0 0 1-2 2z"/></defs><g><g transform="translate(-335 -19)"><use fill="#fd667b" xlink:href="#b67sa"/></g></g></svg>