<svg xmlns="http://www.w3.org/2000/svg" xmlns:xlink="http://www.w3.org/1999/xlink" width="41" height="37" viewBox="0 0 41 37"><defs><path id="z9xma" d="M427 55h-34a2 2 0 0 1-2-2V23c0-1.1.9-2 2-2h34a2 2 0 0 1 2 2v30a2 2 0 0 1-2 2zm0-28a1 1 0 0 0-1-1h-32a1 1 0 0 0-1 1v25a1 1 0 0 0 1 1h32a1 1 0 0 0 1-1zm-3 24h-13a1 1 0 0 1-1-1v-4a1 1 0 0 1 1-1h13a1 1 0 0 1 1 1v4a1 1 0 0 1-1 1zm0-8h-10a1 1 0 0 1-1-1v-4a1 1 0 0 1 1-1h10a1 1 0 0 1 1 1v4a1 1 0 0 1-1 1zm0-8h-13a1 1 0 0 1-1-1v-4a1 1 0 0 1 1-1h13a1 1 0 0 1 1 1v4a1 1 0 0 1-1 1zm-17 0h-10a1 1 0 0 1-1-1v-4a1 1 0 0 1 1-1h10a1 1 0 0 1 1 1v4a1 1 0 0 1-1 1zm-10 2h13a1 1 0 0 1 1 1v4a1 1 0 0 1-1 1h-13a1 1 0 0 1-1-1v-4a1 1 0 0 1 1-1zm0 8h10a1 1 0 0 1 1 1v4a1 1 0 0 1-1 1h-10a1 1 0 0 1-1-1v-4a1 1 0 0 1 1-1z"/></defs><g><g transform="translate(-389 -19)"><use fill="#dde5ed" xlink:href="#z9xma"/></g></g></svg>