<svg xmlns="http://www.w3.org/2000/svg" xmlns:xlink="http://www.w3.org/1999/xlink" width="41" height="37" viewBox="0 0 41 37"><defs><path id="a" d="M320 55h-34a2 2 0 0 1-2-2V23c0-1.1.9-2 2-2h34a2 2 0 0 1 2 2v30a2 2 0 0 1-2 2zm-1-2a1 1 0 0 0 1-1v-7h-8v8zm-8 0v-8h-7v8zm-8 0v-8h-8v8zm-16 0h7v-8h-8v7a1 1 0 0 0 1 1zm7-27h-7a1 1 0 0 0-1 1v8h8zm-8 10v8h8v-8zm17-10h-8v9h8zm-8 10v8h8v-8zm16-10h-7v9h7zm-7 10v8h7v-8zm16-9a1 1 0 0 0-1-1h-7v9h8zm-8 9v8h8v-8z"/></defs><use fill="#dde5ed" xlink:href="#a" transform="translate(-282 -19)"/></svg>