<svg xmlns="http://www.w3.org/2000/svg" xmlns:xlink="http://www.w3.org/1999/xlink" width="41" height="37" viewBox="0 0 41 37"><defs><path id="a" d="M443 23c0-1.1.9-2 2-2h34a2 2 0 0 1 2 2v30a2 2 0 0 1-2 2h-34a2 2 0 0 1-2-2zm2 29a1 1 0 0 0 1 1h32a1 1 0 0 0 1-1V27a1 1 0 0 0-1-1h-32a1 1 0 0 0-1 1zm24.94-11.51a.47.47 0 0 1-.5.42h-.1a1.88 1.88 0 0 0-1.26 3.27c.18.16.2.45.05.64-.4.5-.87.96-1.38 1.36a.48.48 0 0 1-.64-.05c-.5-.56-1.4-.77-2.1-.48-.73.3-1.2 1.02-1.17 1.81.01.25-.17.46-.42.49a8.44 8.44 0 0 1-1.91 0 .47.47 0 0 1-.42-.5c.05-.8-.41-1.54-1.15-1.85-.7-.3-1.6-.08-2.12.48a.47.47 0 0 1-.64.05c-.5-.4-.95-.86-1.35-1.36a.47.47 0 0 1 .05-.64c.59-.53.78-1.38.48-2.1-.3-.73-1-1.19-1.75-1.17-.24 0-.53-.18-.56-.42a8.52 8.52 0 0 1 0-1.93.46.46 0 0 1 .5-.42c.83 0 1.55-.45 1.85-1.15.3-.73.11-1.58-.48-2.12a.47.47 0 0 1-.05-.64c.4-.5.87-.96 1.38-1.36.2-.15.47-.13.64.05.5.56 1.4.77 2.1.48a1.9 1.9 0 0 0 1.17-1.81c-.01-.25.17-.46.42-.49a8.49 8.49 0 0 1 1.9 0c.26.04.44.25.43.5-.05.8.41 1.54 1.14 1.85.7.3 1.62.08 2.12-.48.17-.18.46-.2.65-.05.5.4.95.85 1.35 1.36.15.2.13.47-.05.64a1.9 1.9 0 0 0-.48 2.1c.29.71.98 1.17 1.76 1.17.24 0 .52.18.55.42.07.64.07 1.29 0 1.93zm-5.6-.97a2.84 2.84 0 1 0-5.67 0 2.84 2.84 0 0 0 5.68 0z"/></defs><use fill="#dde5ed" xlink:href="#a" transform="translate(-441 -19)"/></svg>